<?xml version="1.0" encoding="UTF-8"?>
<svg version="1.1" xmlns="http://www.w3.org/2000/svg" width="280" height="280">
<path d="M0 0 C4.76230855 3.36266518 7.81320428 7.46188181 11.1875 12.125 C12.24216337 13.5660757 13.29809698 15.00622287 14.35546875 16.4453125 C14.81590576 17.07969238 15.27634277 17.71407227 15.75073242 18.36767578 C17.04425721 20.13210596 17.04425721 20.13210596 19 22 C21.45691736 22.27137994 23.80831694 22.41876229 26.27270508 22.48095703 C27.39761856 22.51994614 27.39761856 22.51994614 28.54525757 22.5597229 C36.42406694 22.81416493 44.30721179 22.92686954 52.18920898 23.02978516 C55.92081633 23.08308458 59.64724321 23.1801945 63.37670898 23.31689453 C84.35655583 25.26105467 84.35655583 25.26105467 103.23583984 18.56933594 C106.18414756 15.35782641 108.22633024 11.93677559 110.01620483 7.97698975 C111.55419162 4.88632188 113.69974387 2.55774185 116 0 C128.83036971 4.78249141 141.56100107 9.79362247 154.25 14.9375 C154.97388916 15.22998627 155.69777832 15.52247253 156.44360352 15.82382202 C158.51045901 16.65962063 160.57579006 17.49906768 162.640625 18.33984375 C163.84235352 18.82831787 165.04408203 19.31679199 166.28222656 19.82006836 C169 21 169 21 170 22 C170.09558036 23.44213999 170.12188394 24.88894079 170.12025452 26.33424377 C170.12231651 27.73726242 170.12231651 27.73726242 170.12442017 29.16862488 C170.12082489 30.20296158 170.11722961 31.23729828 170.11352539 32.30297852 C170.11367142 33.38577087 170.11381744 34.46856323 170.1139679 35.58416748 C170.11326823 39.18243374 170.10547333 42.78064897 170.09765625 46.37890625 C170.09579226 48.86612418 170.09436827 51.35334248 170.09336853 53.84056091 C170.0899335 59.73021191 170.08204277 65.6198439 170.07201904 71.50948709 C170.05976246 78.87025374 170.05437791 86.23102264 170.04882812 93.59179688 C170.03808815 106.72787398 170.02120089 119.86393583 170 133 C151.06967744 140.89236866 132.13863614 148.78270747 113.1875 156.625 C103.33382546 160.7031227 93.48307564 164.78720661 83.65625 168.9296875 C82.56465324 169.38947495 82.56465324 169.38947495 81.45100403 169.85855103 C78.06157766 171.28664398 74.67354342 172.71788404 71.2878418 174.15478516 C70.11390869 174.65026855 68.93997559 175.14575195 67.73046875 175.65625 C66.71364014 176.08744141 65.69681152 176.51863281 64.64916992 176.96289062 C59.63254723 178.92682143 57.51480259 179.10005466 52.39282227 176.90434265 C51.65604248 176.57497208 50.9192627 176.2456015 50.16015625 175.90625 C49.37882324 175.56837967 48.59749023 175.23050934 47.79248047 174.88240051 C46.09962676 174.14923864 44.40895601 173.41102041 42.72024536 172.66836548 C38.18822062 170.67605224 33.64005534 168.72116956 29.09375 166.76171875 C27.69915306 166.15894356 27.69915306 166.15894356 26.27638245 165.54399109 C16.58944702 161.36752317 6.81871302 157.40760927 -2.97848511 153.49804688 C-19.43689165 146.93011567 -35.67735138 139.92476002 -52 133 C-52 96.37 -52 59.74 -52 22 C-42.9998755 17.49993775 -42.9998755 17.49993775 -39.59106445 16.10888672 C-38.82699783 15.79531219 -38.06293121 15.48173767 -37.27571106 15.15866089 C-36.47960922 14.83559967 -35.68350739 14.51253845 -34.86328125 14.1796875 C-34.02081345 13.83495392 -33.17834564 13.49022034 -32.31034851 13.13504028 C-29.64557853 12.04544558 -26.97907277 10.96017414 -24.3125 9.875 C-22.51225488 9.13960416 -20.71212362 8.40392953 -18.91210938 7.66796875 C-5.6596176 2.2530978 -5.6596176 2.2530978 0 0 Z M-11.94140625 21.80859375 C-12.62428207 22.09477066 -13.3071579 22.38094757 -14.01072693 22.67579651 C-15.4547304 23.28190678 -16.89799559 23.88977849 -18.34057617 24.49926758 C-20.5552334 25.4344316 -22.77251816 26.36313281 -24.99023438 27.29101562 C-26.39078607 27.87982536 -27.79118209 28.46900555 -29.19140625 29.05859375 C-29.85805801 29.3377916 -30.52470978 29.61698944 -31.21156311 29.90464783 C-34.33446734 31.08413857 -34.33446734 31.08413857 -37 33 C-37.09517803 35.76938966 -37.12554265 38.51377159 -37.11352539 41.28344727 C-37.11367142 42.15166107 -37.11381744 43.01987488 -37.1139679 43.91439819 C-37.11326846 46.79842586 -37.10547463 49.6823898 -37.09765625 52.56640625 C-37.09579218 54.56037867 -37.09436823 56.55435155 -37.09336853 58.54832458 C-37.08954248 63.80745702 -37.07971145 69.06656203 -37.06866455 74.32568359 C-37.0584523 79.68782175 -37.05387131 85.04996431 -37.04882812 90.41210938 C-37.03808926 100.94141833 -37.0210118 111.47070689 -37 122 C-30.10706527 125.17474994 -23.18230671 128.23050018 -16.1640625 131.1171875 C-15.25796234 131.49173065 -14.35186218 131.8662738 -13.41830444 132.25216675 C-5.33942155 135.5889415 2.74673128 138.90819752 10.83319092 142.2265625 C16.69302415 144.63296073 22.54439783 147.05816673 28.3866272 149.50698853 C31.78903654 150.93109541 35.19613923 152.34371057 38.60430908 153.75396729 C40.19171829 154.41394871 41.7770079 155.07905331 43.36004639 155.74945068 C45.54712904 156.67477955 47.74104616 157.58156378 49.9375 158.484375 C50.88600327 158.89379837 50.88600327 158.89379837 51.85366821 159.31149292 C58.87051259 162.14601756 64.04211534 159.78832833 70.67578125 157 C71.42210312 156.69226151 72.16842499 156.38452301 72.93736267 156.06745911 C75.39827919 155.05098432 77.8553738 154.02559934 80.3125 153 C82.03656097 152.28551337 83.76084883 151.57157402 85.48535156 150.8581543 C89.11681978 149.35463918 92.74669848 147.84737004 96.37548828 146.33740234 C102.01544909 143.99156272 107.66164636 141.66099081 113.30859375 139.33203125 C116.06455595 138.1941379 118.82034641 137.05583016 121.57601929 135.91723633 C123.34102778 135.18803548 125.10618192 134.45918704 126.87149048 133.73071289 C129.35786966 132.70398863 131.8431374 131.67461825 134.328125 130.64453125 C135.04443588 130.34924026 135.76074677 130.05394928 136.49876404 129.74971008 C142.4035322 127.29711676 148.16835556 124.65074747 154 122 C154 92.63 154 63.26 154 33 C146.86813137 29.43406569 139.90410754 26.1471377 132.5625 23.125 C131.58345703 22.70992187 130.60441406 22.29484375 129.59570312 21.8671875 C128.65791016 21.48046875 127.72011719 21.09375 126.75390625 20.6953125 C125.91158447 20.34484863 125.0692627 19.99438477 124.20141602 19.63330078 C121.85568739 18.7335591 121.85568739 18.7335591 119 20 C117.73316561 21.76857094 117.73316561 21.76857094 116.61845398 23.95852661 C109.35331607 36.44201687 109.35331607 36.44201687 103.70349503 39.06697845 C97.40299026 40.67302839 90.96927829 40.37348111 84.51953125 40.1796875 C82.45456456 40.1765686 80.38957996 40.17970302 78.32463074 40.18875122 C74.01617145 40.1882156 69.71451501 40.12628301 65.4074707 40.01708984 C59.90742961 39.88065187 54.4172597 39.87775323 48.91598988 39.91819572 C44.65900498 39.93831649 40.4042422 39.89831762 36.14768028 39.83942032 C34.1213617 39.81646278 32.09479489 39.80935492 30.06836891 39.81893539 C13.53070111 39.8320163 13.53070111 39.8320163 8.57943726 35.35797119 C5.9608611 32.49535312 3.95664251 29.34854046 2 26 C0.36731927 23.6394595 -1.31177381 21.32131102 -3 19 C-6.22619879 19 -9.00894647 20.56778986 -11.94140625 21.80859375 Z " fill="#080808" transform="translate(81,71)"/>
<path d="M0 0 C6.66413509 4.53970493 11.15858821 11.11190897 13.74609375 18.71484375 C15.37449208 27.9465155 15.20981593 36.68733928 10.453125 44.96484375 C4.96449589 52.73427048 -1.87012365 58.49368244 -11.25390625 60.71484375 C-21.57017363 61.80427716 -30.10474226 60.99853102 -38.6875 55.01953125 C-45.22231262 49.71871444 -48.62063638 43.61465336 -51.25390625 35.71484375 C-52.05352095 24.16631015 -51.55581187 14.79022661 -44.06640625 5.40234375 C-40.3282064 1.43150914 -36.18304357 -1.03053233 -31.25390625 -3.28515625 C-30.32578125 -3.71828125 -29.39765625 -4.15140625 -28.44140625 -4.59765625 C-18.1791078 -6.81109317 -9.06907914 -5.17110405 0 0 Z M-34.25390625 11.71484375 C-34.25390625 14.02484375 -34.25390625 16.33484375 -34.25390625 18.71484375 C-30.62390625 18.71484375 -26.99390625 18.71484375 -23.25390625 18.71484375 C-23.25390625 27.62484375 -23.25390625 36.53484375 -23.25390625 45.71484375 C-20.61390625 45.71484375 -17.97390625 45.71484375 -15.25390625 45.71484375 C-15.25390625 36.80484375 -15.25390625 27.89484375 -15.25390625 18.71484375 C-11.62390625 18.71484375 -7.99390625 18.71484375 -4.25390625 18.71484375 C-4.25390625 16.40484375 -4.25390625 14.09484375 -4.25390625 11.71484375 C-14.15390625 11.71484375 -24.05390625 11.71484375 -34.25390625 11.71484375 Z " fill="#060606" transform="translate(108.25390625,124.28515625)"/>
<path d="M0 0 C7.28899191 5.85069584 12.11411313 14.09184168 13.5234375 23.375 C14.17280025 32.95310053 11.58701319 41.84832271 5.5234375 49.375 C-0.91929658 56.33164866 -6.57686846 59.86226531 -16.02734375 60.68359375 C-26.61118107 61.03461549 -34.03011216 59.44937844 -42.2890625 52.75 C-49.52351892 45.91247836 -52.56537761 37.64931478 -52.8515625 27.875 C-52.75423034 18.51164591 -50.1863564 10.87979663 -43.7890625 3.9375 C-31.41135254 -7.33631553 -14.14669134 -9.28237161 0 0 Z M-29.4765625 11.375 C-29.4765625 22.595 -29.4765625 33.815 -29.4765625 45.375 C-27.1665625 45.375 -24.8565625 45.375 -22.4765625 45.375 C-21.19043574 44.31521067 -21.19043574 44.31521067 -21.37890625 41.87109375 C-21.39050781 40.86175781 -21.40210938 39.85242188 -21.4140625 38.8125 C-21.4346875 37.018125 -21.4553125 35.22375 -21.4765625 33.375 C-16.1965625 33.375 -10.9165625 33.375 -5.4765625 33.375 C-5.4765625 31.065 -5.4765625 28.755 -5.4765625 26.375 C-10.7565625 26.375 -16.0365625 26.375 -21.4765625 26.375 C-21.4765625 23.405 -21.4765625 20.435 -21.4765625 17.375 C-15.8665625 17.375 -10.2565625 17.375 -4.4765625 17.375 C-4.1465625 15.395 -3.8165625 13.415 -3.4765625 11.375 C-12.0565625 11.375 -20.6365625 11.375 -29.4765625 11.375 Z " fill="#080808" transform="translate(209.4765625,124.625)"/>
<path d="M0 0 C1.91997055 -0.00539545 3.83993576 -0.01316497 5.7598877 -0.02319336 C9.77486435 -0.03495827 13.7884127 -0.0179448 17.80322266 0.01953125 C22.93531222 0.06511636 28.06405513 0.03885564 33.19602203 -0.00904846 C37.15807048 -0.0380368 41.11933277 -0.02872102 45.08140564 -0.00802612 C46.97273663 -0.00271115 48.86414034 -0.00916239 50.75538635 -0.02786255 C65.52784388 -0.14189377 65.52784388 -0.14189377 70.45336914 2.91455078 C72.4251995 4.86722043 74.00815204 6.7100503 75.46875 9.0625 C75.1749646 9.63486389 74.8811792 10.20722778 74.57849121 10.79693604 C73.88126797 12.22033442 73.22408479 13.6647897 72.62756348 15.13323975 C69.89839905 21.63271587 66.47455294 27.17838591 60.46875 31.0625 C50.3378657 34.13473359 39.49797675 33.66866543 29.01318359 33.40917969 C24.807035 33.30646394 20.62133496 33.36718056 16.41589355 33.47126007 C-8.01514819 33.98318435 -8.01514819 33.98318435 -15.34326172 29.24389648 C-20.17939244 24.59052352 -23.03088459 19.21762243 -25.53125 13.0625 C-26.18700248 11.72376519 -26.85052634 10.38871172 -27.53125 9.0625 C-20.96578654 -1.51188323 -11.08200882 -0.10957611 0 0 Z " fill="#070707" transform="translate(115.53125,56.9375)"/>
<path d="M0 0 C5.57894737 3.15789474 5.57894737 3.15789474 7 6 C7.42038217 14.68789809 7.42038217 14.68789809 5 18 C4.01 18.66 3.02 19.32 2 20 C1.55305285 22.23452637 1.55305285 22.23452637 1.63923645 24.87210083 C1.63305046 26.41601501 1.63305046 26.41601501 1.6267395 27.99111938 C1.63752533 29.12471893 1.64831116 30.25831848 1.65942383 31.42626953 C1.65898575 32.61649719 1.65854767 33.80672485 1.65809631 35.03302002 C1.65983133 38.30154545 1.67490236 41.56968823 1.69581819 44.83813715 C1.71454041 48.25209047 1.7163319 51.66605087 1.71989441 55.08004761 C1.72922803 61.54700949 1.75385947 68.01381967 1.78394288 74.48071468 C1.81744606 81.84214735 1.83396259 89.20358717 1.84902918 96.56507707 C1.880408 111.71013598 1.93319392 126.85505284 2 142 C0.4042311 141.88029377 -1.19068411 141.74917295 -2.78515625 141.61328125 C-4.11752319 141.50560425 -4.11752319 141.50560425 -5.47680664 141.39575195 C-10.02082425 140.68304247 -12.84941699 138.30928411 -15.8125 134.9375 C-17.78350736 131.72164588 -18.13303222 129.04889908 -18.17700195 125.36425781 C-18.18983719 124.42608215 -18.20267242 123.48790649 -18.21589661 122.52130127 C-18.22328354 121.5088031 -18.23067047 120.49630493 -18.23828125 119.453125 C-18.246353 118.4085614 -18.25442474 117.3639978 -18.26274109 116.28778076 C-18.27657636 114.07533424 -18.287301 111.86286642 -18.29516602 109.65039062 C-18.31236273 106.27692898 -18.35625297 102.90445148 -18.40039062 99.53125 C-18.41051925 97.38021553 -18.41903482 95.22917274 -18.42578125 93.078125 C-18.44328934 92.07372375 -18.46079742 91.06932251 -18.47883606 90.03448486 C-18.4596453 83.79765276 -17.8402306 80.00000499 -14 75 C-12.41481567 74.14414307 -12.41481567 74.14414307 -10.79760742 73.27099609 C-7.84048174 71.33801424 -7.84048174 71.33801424 -7.44497681 68.73126221 C-7.21974518 65.69296018 -7.19501625 62.71051727 -7.23828125 59.6640625 C-7.23322823 57.99589981 -7.23322823 57.99589981 -7.22807312 56.29403687 C-7.22837206 53.94207129 -7.24362904 51.59006711 -7.27270508 49.23828125 C-7.31228395 45.64461704 -7.29344465 42.05466005 -7.26757812 38.4609375 C-7.27513968 36.17446488 -7.28609558 33.88800046 -7.30078125 31.6015625 C-7.29379715 30.52951569 -7.28681305 29.45746887 -7.27961731 28.35293579 C-7.40487217 21.70582531 -8.19326878 18.64167911 -13 14 C-13.89117557 10.93900566 -13.47019022 9.29133151 -13 6 C-9.63548925 0.54717224 -6.28548686 -0.6162242 0 0 Z " fill="#070708" transform="translate(19,46)"/>
<path d="M0 0 C2.80703896 1.34040619 3.86054551 2.54745461 6 5 C7.28998174 9.17347032 7.29348391 11.22226764 5.75 15.3125 C4 18 4 18 1 20 C0.52850692 22.13856067 0.52850692 22.13856067 0.58007812 24.64575195 C0.56416626 25.61047928 0.54825439 26.5752066 0.53186035 27.56916809 C0.53165894 28.61497543 0.53145752 29.66078278 0.53125 30.73828125 C0.52363647 31.81119919 0.51602295 32.88411713 0.50817871 33.98954773 C0.49735683 36.26343455 0.49453303 38.53737116 0.49902344 40.8112793 C0.49999329 44.28844557 0.45844462 47.76338844 0.4140625 51.24023438 C0.40885389 53.44791206 0.40616733 55.65559742 0.40625 57.86328125 C0.38985474 58.9030159 0.37345947 59.94275055 0.35656738 61.01399231 C0.35637177 66.87403859 0.35637177 66.87403859 3.22460938 71.82104492 C4.14048828 72.5401001 5.05636719 73.25915527 6 74 C10.68564469 78.47439303 11.59366408 81.34706517 11.79589844 87.79293823 C11.80137695 88.78681549 11.80685547 89.78069275 11.8125 90.8046875 C11.83473633 91.84263458 11.85697266 92.88058167 11.87988281 93.94998169 C11.92135268 96.14012976 11.95088514 98.33053234 11.96923828 100.52099609 C11.99984142 103.85771015 12.07309395 107.19146843 12.15234375 110.52734375 C12.18743858 112.66141803 12.22007163 114.79553451 12.25 116.9296875 C12.27167236 117.9195163 12.29334473 118.90934509 12.31567383 119.9291687 C12.34219703 126.00356707 11.61891432 130.48923818 9 136 C4.7301903 140.0615263 2.17235676 141.12991113 -3.625 141.0625 C-4.62789063 141.05347656 -5.63078125 141.04445312 -6.6640625 141.03515625 C-7.82035156 141.01775391 -7.82035156 141.01775391 -9 141 C-9.02318444 131.82910742 -9.04094622 122.65822496 -9.05181217 113.48730946 C-9.05702764 109.2287524 -9.06410104 104.97021542 -9.07543945 100.71166992 C-9.0863158 96.60088084 -9.09228691 92.49011106 -9.09487724 88.3793087 C-9.09672293 86.81205631 -9.10032707 85.24480497 -9.10573006 83.67756081 C-9.11300348 81.4800858 -9.11398828 79.28269021 -9.11352539 77.08520508 C-9.115746 75.83500076 -9.11796661 74.58479645 -9.12025452 73.29670715 C-9.01388081 70.3805343 -8.61123855 67.83960969 -8 65 C-7.89603332 63.46245586 -7.83275609 61.92170145 -7.80712891 60.38085938 C-7.79106598 59.49644165 -7.77500305 58.61202393 -7.75845337 57.70080566 C-7.71369546 53.69101093 -7.67299487 49.6813727 -7.64990234 45.67138672 C-7.6332999 43.55701728 -7.60595404 41.44270492 -7.56787109 39.32861328 C-7.51314096 36.27086462 -7.49124047 33.21442221 -7.4765625 30.15625 C-7.45389313 29.21342163 -7.43122375 28.27059326 -7.40786743 27.29919434 C-7.42598698 21.67120672 -7.42598698 21.67120672 -10.47021484 16.99023438 C-11.30504395 16.33345703 -12.13987305 15.67667969 -13 15 C-14.43304064 12.13391871 -14.30644155 10.18699217 -14 7 C-10.39201991 0.62590184 -7.36619305 -1.18897736 0 0 Z " fill="#070707" transform="translate(267,46)"/>
<path d="M0 0 C1.68647082 -0.04657255 3.37393806 -0.06316166 5.06103516 -0.05566406 C6.4019371 -0.06995453 6.4019371 -0.06995453 7.76992798 -0.08453369 C9.66119547 -0.09670016 11.55258467 -0.09585607 13.44384766 -0.08300781 C16.33404026 -0.07135381 19.21835942 -0.12348428 22.10791016 -0.18066406 C23.94644772 -0.18455023 25.78499786 -0.18467369 27.62353516 -0.18066406 C28.48514252 -0.20110779 29.34674988 -0.22155151 30.23446655 -0.24261475 C36.06705214 -0.13032286 36.06705214 -0.13032286 38.68292236 2.20031738 C40.04072076 3.99811851 41.12728332 5.59102188 41.97509766 7.67871094 C41.47509766 10.36621094 41.47509766 10.36621094 39.97509766 12.67871094 C39.46837524 13.72164307 39.46837524 13.72164307 38.95141602 14.78564453 C35.73917522 17.86257043 32.14010974 17.28926612 27.85400391 17.28027344 C26.9576976 17.28884369 26.0613913 17.29741394 25.13792419 17.3062439 C23.24245584 17.31772877 21.34689932 17.3187321 19.45141602 17.31005859 C16.55087864 17.30373987 13.65442658 17.35063202 10.75439453 17.40136719 C8.91260281 17.40591356 7.0708001 17.40731998 5.22900391 17.40527344 C3.92885094 17.43290268 3.92885094 17.43290268 2.60243225 17.46109009 C0.24298836 17.42484122 -1.75627718 17.33006886 -4.02490234 16.67871094 C-6.6553077 13.73967998 -8.0597361 12.10689478 -7.96240234 8.11621094 C-7.65302734 7.31183594 -7.34365234 6.50746094 -7.02490234 5.67871094 C-6.69796387 4.81858398 -6.37102539 3.95845703 -6.03417969 3.07226562 C-3.7470591 0.34772975 -3.36586368 0.29521357 0 0 Z " fill="#050506" transform="translate(123.02490234375,191.3212890625)"/>
</svg>
